<?xml version="1.0" encoding="UTF-8" ?>
<svg version="1.1" width="128" height="128" xmlns="http://www.w3.org/2000/svg" shape-rendering="crispEdges">
<rect x="0" y="0" width="128" height="8" fill="#FFFFFF" />
<rect x="0" y="8" width="8" height="120" fill="#FFFFFF" />
<rect x="8" y="8" width="4" height="4" fill="#181840" />
<rect x="12" y="8" width="4" height="8" fill="#FFFFFF" />
<rect x="16" y="8" width="96" height="8" fill="#181840" />
<rect x="112" y="8" width="4" height="8" fill="#FFFFFF" />
<rect x="116" y="8" width="4" height="4" fill="#181840" />
<rect x="120" y="8" width="8" height="120" fill="#FFFFFF" />
<rect x="8" y="12" width="4" height="4" fill="#FFFFFF" />
<rect x="116" y="12" width="4" height="4" fill="#FFFFFF" />
<rect x="8" y="16" width="48" height="4" fill="#181840" />
<rect x="56" y="16" width="16" height="4" fill="#FFFFFF" />
<rect x="72" y="16" width="48" height="4" fill="#181840" />
<rect x="8" y="20" width="44" height="4" fill="#181840" />
<rect x="52" y="20" width="4" height="4" fill="#FFFFFF" />
<rect x="56" y="20" width="16" height="4" fill="#D63100" />
<rect x="72" y="20" width="4" height="4" fill="#FFFFFF" />
<rect x="76" y="20" width="44" height="4" fill="#181840" />
<rect x="8" y="24" width="40" height="28" fill="#181840" />
<rect x="48" y="24" width="4" height="16" fill="#FFFFFF" />
<rect x="52" y="24" width="4" height="16" fill="#F8D820" />
<rect x="56" y="24" width="8" height="12" fill="#D63100" />
<rect x="64" y="24" width="8" height="8" fill="#F8D820" />
<rect x="72" y="24" width="4" height="16" fill="#D63100" />
<rect x="76" y="24" width="4" height="16" fill="#FFFFFF" />
<rect x="80" y="24" width="40" height="28" fill="#181840" />
<rect x="64" y="32" width="8" height="8" fill="#D63100" />
<rect x="56" y="36" width="4" height="8" fill="#F8D820" />
<rect x="60" y="36" width="4" height="4" fill="#D63100" />
<rect x="48" y="40" width="4" height="12" fill="#181840" />
<rect x="52" y="40" width="4" height="4" fill="#FFFFFF" />
<rect x="60" y="40" width="12" height="4" fill="#F8D820" />
<rect x="72" y="40" width="4" height="4" fill="#FFFFFF" />
<rect x="76" y="40" width="4" height="12" fill="#181840" />
<rect x="52" y="44" width="4" height="40" fill="#181840" />
<rect x="56" y="44" width="16" height="4" fill="#FFFFFF" />
<rect x="72" y="44" width="4" height="40" fill="#181840" />
<rect x="56" y="48" width="16" height="28" fill="#181840" />
<rect x="8" y="52" width="28" height="20" fill="#181840" />
<rect x="36" y="52" width="16" height="4" fill="#FFFFFF" />
<rect x="76" y="52" width="8" height="8" fill="#FFFFFF" />
<rect x="84" y="52" width="4" height="4" fill="#181840" />
<rect x="88" y="52" width="4" height="16" fill="#FFFFFF" />
<rect x="92" y="52" width="28" height="20" fill="#181840" />
<rect x="36" y="56" width="4" height="4" fill="#181840" />
<rect x="40" y="56" width="12" height="8" fill="#FFFFFF" />
<rect x="84" y="56" width="4" height="12" fill="#FFFFFF" />
<rect x="36" y="60" width="4" height="8" fill="#FFFFFF" />
<rect x="76" y="60" width="4" height="4" fill="#181840" />
<rect x="80" y="60" width="4" height="8" fill="#FFFFFF" />
<rect x="40" y="64" width="4" height="4" fill="#FFFFFF" />
<rect x="44" y="64" width="4" height="16" fill="#181840" />
<rect x="48" y="64" width="4" height="4" fill="#FFFFFF" />
<rect x="76" y="64" width="4" height="4" fill="#FFFFFF" />
<rect x="36" y="68" width="8" height="4" fill="#181840" />
<rect x="48" y="68" width="4" height="52" fill="#181840" />
<rect x="76" y="68" width="16" height="4" fill="#181840" />
<rect x="8" y="72" width="16" height="4" fill="#181840" />
<rect x="24" y="72" width="16" height="4" fill="#FFFFFF" />
<rect x="40" y="72" width="4" height="4" fill="#181840" />
<rect x="76" y="72" width="12" height="4" fill="#181840" />
<rect x="88" y="72" width="16" height="4" fill="#FFFFFF" />
<rect x="104" y="72" width="16" height="4" fill="#181840" />
<rect x="8" y="76" width="12" height="4" fill="#181840" />
<rect x="20" y="76" width="4" height="4" fill="#FFFFFF" />
<rect x="24" y="76" width="16" height="4" fill="#4868E8" />
<rect x="40" y="76" width="4" height="4" fill="#FFFFFF" />
<rect x="56" y="76" width="4" height="4" fill="#181840" />
<rect x="60" y="76" width="4" height="24" fill="#FFFFFF" />
<rect x="64" y="76" width="8" height="8" fill="#181840" />
<rect x="76" y="76" width="8" height="4" fill="#181840" />
<rect x="84" y="76" width="4" height="4" fill="#FFFFFF" />
<rect x="88" y="76" width="16" height="4" fill="#10A500" />
<rect x="104" y="76" width="4" height="4" fill="#FFFFFF" />
<rect x="108" y="76" width="12" height="4" fill="#181840" />
<rect x="8" y="80" width="8" height="32" fill="#181840" />
<rect x="16" y="80" width="4" height="16" fill="#FFFFFF" />
<rect x="20" y="80" width="4" height="16" fill="#10FFFF" />
<rect x="24" y="80" width="8" height="12" fill="#4868E8" />
<rect x="32" y="80" width="8" height="8" fill="#10FFFF" />
<rect x="40" y="80" width="4" height="16" fill="#4868E8" />
<rect x="44" y="80" width="4" height="16" fill="#FFFFFF" />
<rect x="56" y="80" width="4" height="16" fill="#FFFFFF" />
<rect x="76" y="80" width="4" height="40" fill="#181840" />
<rect x="80" y="80" width="4" height="16" fill="#FFFFFF" />
<rect x="84" y="80" width="4" height="16" fill="#94FFBD" />
<rect x="88" y="80" width="8" height="12" fill="#10A500" />
<rect x="96" y="80" width="8" height="8" fill="#94FFBD" />
<rect x="104" y="80" width="4" height="16" fill="#10A500" />
<rect x="108" y="80" width="4" height="16" fill="#FFFFFF" />
<rect x="112" y="80" width="8" height="32" fill="#181840" />
<rect x="52" y="84" width="4" height="8" fill="#FFFFFF" />
<rect x="64" y="84" width="12" height="8" fill="#FFFFFF" />
<rect x="32" y="88" width="8" height="8" fill="#4868E8" />
<rect x="96" y="88" width="8" height="8" fill="#10A500" />
<rect x="24" y="92" width="4" height="8" fill="#10FFFF" />
<rect x="28" y="92" width="4" height="4" fill="#4868E8" />
<rect x="52" y="92" width="4" height="28" fill="#181840" />
<rect x="64" y="92" width="12" height="28" fill="#181840" />
<rect x="88" y="92" width="4" height="8" fill="#94FFBD" />
<rect x="92" y="92" width="4" height="4" fill="#10A500" />
<rect x="16" y="96" width="4" height="24" fill="#181840" />
<rect x="20" y="96" width="4" height="4" fill="#FFFFFF" />
<rect x="28" y="96" width="12" height="4" fill="#10FFFF" />
<rect x="40" y="96" width="4" height="4" fill="#FFFFFF" />
<rect x="44" y="96" width="4" height="24" fill="#181840" />
<rect x="56" y="96" width="4" height="24" fill="#181840" />
<rect x="80" y="96" width="4" height="24" fill="#181840" />
<rect x="84" y="96" width="4" height="4" fill="#FFFFFF" />
<rect x="92" y="96" width="12" height="4" fill="#94FFBD" />
<rect x="104" y="96" width="4" height="4" fill="#FFFFFF" />
<rect x="108" y="96" width="4" height="24" fill="#181840" />
<rect x="20" y="100" width="4" height="20" fill="#181840" />
<rect x="24" y="100" width="16" height="4" fill="#FFFFFF" />
<rect x="40" y="100" width="4" height="20" fill="#181840" />
<rect x="60" y="100" width="4" height="20" fill="#181840" />
<rect x="84" y="100" width="4" height="20" fill="#181840" />
<rect x="88" y="100" width="16" height="4" fill="#FFFFFF" />
<rect x="104" y="100" width="4" height="20" fill="#181840" />
<rect x="24" y="104" width="16" height="16" fill="#181840" />
<rect x="88" y="104" width="16" height="16" fill="#181840" />
<rect x="8" y="112" width="8" height="4" fill="#FFFFFF" />
<rect x="112" y="112" width="8" height="4" fill="#FFFFFF" />
<rect x="8" y="116" width="4" height="4" fill="#181840" />
<rect x="12" y="116" width="4" height="12" fill="#FFFFFF" />
<rect x="112" y="116" width="4" height="12" fill="#FFFFFF" />
<rect x="116" y="116" width="4" height="4" fill="#181840" />
<rect x="8" y="120" width="4" height="8" fill="#FFFFFF" />
<rect x="16" y="120" width="96" height="8" fill="#FFFFFF" />
<rect x="116" y="120" width="4" height="8" fill="#FFFFFF" />
</svg>